<svg width="109" height="108" viewBox="0 0 109 108" fill="none" xmlns="http://www.w3.org/2000/svg">
<g filter="url(#filter0_d_5142_1111)">
<path d="M49.9746 63.8344C54.3888 64.9682 64.3433 67.5249 65.8234 61.2175C67.3131 54.8258 57.9812 52.8136 53.2989 51.804C52.7426 51.684 52.2519 51.5782 51.8528 51.4809L49.0097 63.5902C49.2891 63.6583 49.6133 63.7416 49.9746 63.8344Z" fill="#F7931A"/>
<path d="M53.9287 46.1254C57.6106 47.0774 65.9914 49.2443 67.343 43.4953C68.7141 37.7253 60.8926 36.0498 57.0244 35.2211C56.5593 35.1215 56.1514 35.0341 55.8234 34.9533L53.1764 45.9335C53.3966 45.9878 53.6491 46.0531 53.9287 46.1254Z" fill="#F7931A"/>
<path fill-rule="evenodd" clip-rule="evenodd" d="M42.4104 98.5072C69.2289 105.183 96.3418 88.8368 103.014 62.0675C109.669 35.2818 93.3492 8.08697 66.5144 1.49281C39.7613 -5.18317 12.6648 11.1632 5.99285 37.9325C-0.67907 64.7019 15.641 91.8149 42.4104 98.5072ZM67.0653 30.9769C74.0097 33.3333 79.0751 36.8188 78.1764 43.4953C77.4901 48.3554 74.843 50.7282 71.1829 51.5627C76.1829 54.1319 78.6829 58.0265 76.3953 64.8503C73.5522 73.4086 66.5424 74.1777 57.1633 72.5086L55.0064 81.6233L49.5162 80.2978L51.6731 71.3304C50.2842 70.9867 48.83 70.6267 47.294 70.2176L45.1371 79.2505L39.647 77.925L41.8038 68.8103C41.049 68.5915 40.264 68.4029 39.4672 68.2115C38.9531 68.088 38.434 67.9633 37.9149 67.8285L30.7581 66.1594L33.3561 59.8265C33.3561 59.8265 37.4574 60.8738 37.3921 60.8084C38.9117 61.152 39.6143 60.1702 39.8921 59.4829L43.2254 45.0826C43.3316 45.1153 43.4174 45.1317 43.5032 45.1481C43.589 45.1644 43.6747 45.1808 43.7809 45.2135C43.6435 45.1183 43.513 45.0846 43.3981 45.055C43.3354 45.0389 43.2773 45.0239 43.2254 45.0008L45.66 34.7079C45.7417 33.5951 45.3169 32.1387 43.0947 31.5824C43.2417 31.5006 39.1404 30.6005 39.1404 30.6005L40.5293 24.7586L48.0947 26.575C48.6829 26.7141 49.2752 26.8368 49.8675 26.9596C50.4599 27.0823 51.0522 27.205 51.6404 27.3441L53.7973 18.3112L59.3528 19.6367L57.2613 28.4732C58.7156 28.7678 60.1862 29.1114 61.6404 29.4551L63.7319 20.6185L69.2221 21.944L67.0653 30.9769Z" fill="#F7931A"/>
</g>
<defs>
<filter id="filter0_d_5142_1111" x="0.5" y="0" width="108" height="108" filterUnits="userSpaceOnUse" color-interpolation-filters="sRGB">
<feFlood flood-opacity="0" result="BackgroundImageFix"/>
<feColorMatrix in="SourceAlpha" type="matrix" values="0 0 0 0 0 0 0 0 0 0 0 0 0 0 0 0 0 0 127 0" result="hardAlpha"/>
<feOffset dy="4"/>
<feGaussianBlur stdDeviation="2"/>
<feComposite in2="hardAlpha" operator="out"/>
<feColorMatrix type="matrix" values="0 0 0 0 0 0 0 0 0 0 0 0 0 0 0 0 0 0 0.25 0"/>
<feBlend mode="normal" in2="BackgroundImageFix" result="effect1_dropShadow_5142_1111"/>
<feBlend mode="normal" in="SourceGraphic" in2="effect1_dropShadow_5142_1111" result="shape"/>
</filter>
</defs>
</svg>
